<svg version="1" xmlns="http://www.w3.org/2000/svg" width="366.667" height="366.667" viewBox="0 0 275.000000 275.000000"><path d="M35.2 27.8l-3.2.3v88c.1 48.7.5 90.6 1 93.7 3 18.2 18.3 32.8 37.4 35.5 6.3.9 8.7.8 15-.7 11.5-2.7 17-6.7 37.4-27.2l18.5-18.5 20.1 19.9c21.9 21.7 25.2 24 37.8 26.3 18.7 3.4 38.2-6.8 46.9-24.6 3.3-6.7 3.4-7.4 3.4-18.5 0-10.9-.2-11.9-3.3-18.5-2.9-6.1-5.7-9.4-23-26.7L203.6 137l5.4-5.6c3-3.1 10.6-10.6 16.8-16.7 20.6-20.4 24.9-28.6 24-46.1-.4-7.8-1-10.3-3.8-15.9-11.9-24.3-41.7-32.3-64.2-17.3-2.9 1.9-17.9 16.2-33.3 31.6l-28 28.2-.6-16.9c-.8-21.9-3.2-28.7-13.8-38.6-7.7-7.2-16.6-11-26.6-11.4-12.4-.5-40.6-.8-44.3-.5z"/></svg>